Coordinates
nRows=227
nColumns=2
inDegrees=yes
endheader
time	ankle_angle_r	
2.69456	  9.353638	
2.72782	  9.356480	
2.76109	  9.381217	
2.79435	  9.353638	
2.82762	  9.377892	
2.86089	  9.387384	
2.89415	  9.341704	
2.92742	  9.341801	
2.96069	  9.372416	
2.99395	  9.350022	
3.02722	  9.349926	
3.06048	  9.345997	
3.09375	  9.391603	
3.12702	  9.380153	
3.16028	  9.346577	
3.19355	  9.323120	
3.22681	  9.323120	
3.26008	  9.316639	
3.29335	  9.323120	
3.32661	  9.281926	
3.35988	  9.225667	
3.39315	  9.236343	
3.42641	  9.251698	
3.45968	  9.221277	
3.49294	  9.231567	
3.52621	  9.267247	
3.55948	  9.257344	
3.59274	  9.267441	
3.62601	  9.246826	
3.65927	  9.217697	
3.69254	  9.262085	
3.72581	  9.231567	
3.75907	  9.216309	
3.79234	  9.170532	
3.8256	  9.252859	
3.85887	  9.246826	
3.89214	  9.216309	
3.9254	  9.274731	
3.95867	  9.299022	
3.99194	  9.214082	
4.0252	  9.283957	
4.05847	  9.199210	
4.09173	  9.207856	
4.125	  9.255182	
4.15827	  9.155273	
4.19153	  9.238664	
4.2248	  9.254892	
4.25806	  9.223598	
4.29133	  9.200563	
4.3246	  9.277344	
4.35786	  9.170433	
4.39113	  9.201050	
4.4244	  9.231567	
4.45766	  9.231567	
4.49093	  9.185117	
4.52419	  9.247693	
4.55746	  9.209209	
4.59073	  9.231567	
4.62399	  9.248274	
4.65726	  9.209499	
4.69052	  9.207762	
4.72379	  9.292603	
4.75706	  9.177052	
4.79032	  9.225145	
4.82359	  9.301536	
4.85685	  9.216309	
4.89012	  9.198055	
4.92339	  9.262085	
4.95665	  9.209546	
4.98992	  9.161116	
5.02319	  9.201050	
5.05645	  9.256436	
5.08972	  9.206602	
5.12298	  9.220656	
5.15625	  9.149915	
5.18952	  9.135280	
5.22278	  9.201050	
5.25605	  9.201050	
5.28931	  9.206022	
5.32258	  9.241951	
5.35585	  9.196271	
5.38911	  9.159955	
5.42238	  9.298691	
5.45565	  9.205539	
5.48891	  9.216309	
5.52218	  9.251122	
5.55544	  9.162135	
5.58871	  9.224512	
5.62198	  9.262085	
5.65524	  9.204958	
5.68851	  9.235379	
5.72177	  9.304146	
5.75504	  9.246826	
5.78831	  9.277344	
5.82157	  9.238418	
5.85484	  9.250154	
5.8881	  9.280576	
5.92137	  9.265220	
5.95464	  9.246826	
5.9879	  9.277344	
6.02117	  9.292603	
6.05444	  9.289854	
6.0877	  9.300557	
6.12097	  9.323120	
6.15423	  9.251742	
6.1875	  9.343102	
6.22077	  9.355903	
6.25403	  9.329624	
6.2873	  9.368896	
6.32056	  9.372846	
6.35383	  9.340257	
6.3871	  9.368896	
6.42036	  9.396045	
6.45363	  9.339967	
6.4869	  9.355129	
6.52016	  9.339773	
6.55343	  9.353638	
6.58669	  9.368896	
6.61996	  9.352533	
6.65323	  9.294619	
6.68649	  9.295336	
6.71976	  9.398600	
6.75302	  9.352920	
6.78629	  9.369517	
6.81956	  9.339952	
6.85282	  9.338807	
6.88609	  9.307861	
6.91935	  9.353872	
6.95262	  9.292603	
6.98589	  9.338379	
7.01915	  9.246881	
7.05242	  9.246521	
7.08569	  9.246826	
7.11895	  9.231914	
7.15222	  9.262085	
7.18548	  9.306783	
7.21875	  9.276708	
7.25202	  9.322388	
7.28528	  9.306203	
7.31855	  9.306935	
7.35181	  9.229523	
7.38508	  9.337259	
7.41835	  9.305429	
7.45161	  9.232880	
7.48488	  9.306452	
7.51815	  9.277344	
7.55141	  9.275742	
7.58468	  9.311260	
7.61794	  9.397618	
7.65121	  9.325013	
7.68448	  9.281322	
7.71774	  9.340465	
7.75101	  9.353638	
7.78427	  9.368896	
7.81754	  9.389910	
7.85081	  9.351165	
7.88407	  9.384155	
7.91734	  9.343711	
7.9506	  9.323120	
7.98387	  9.389874	
8.01714	  9.374809	
8.0504	  9.347538	
8.08367	  9.344678	
8.11694	  9.399414	
8.1502	  9.353638	
8.18347	  9.368896	
8.21673	  9.399414	
8.25	  9.350004	
8.28327	  9.384155	
8.31653	  9.410847	
8.3498	  9.330966	
8.38306	  9.342399	
8.41633	  9.303745	
8.4496	  9.301029	
8.48286	  9.255445	
8.51613	  9.235974	
8.5494	  9.211805	
8.58266	  9.226968	
8.61593	  9.298469	
8.64919	  9.303068	
8.68246	  9.353638	
8.71573	  9.236256	
8.74899	  9.297686	
8.78226	  9.272163	
8.81552	  9.287897	
8.84879	  9.262085	
8.88206	  9.348167	
8.91532	  9.292603	
8.94859	  9.262085	
8.98185	  9.206810	
9.01512	  9.237424	
9.04839	  9.234169	
9.08165	  9.262085	
9.11492	  9.295784	
9.14819	  9.292603	
9.18145	  9.283684	
9.21472	  9.192228	
9.24798	  9.262085	
9.28125	  9.238197	
9.31452	  9.199245	
9.34778	  9.216309	
9.38105	  9.238488	
9.41431	  9.239809	
9.44758	  9.178678	
9.48085	  9.277344	
9.51411	  9.208357	
9.54738	  9.231116	
9.58065	  9.246569	
9.61391	  9.178194	
9.64718	  9.216309	
9.68044	  9.223777	
9.71371	  9.185791	
9.74698	  9.270069	
9.78024	  9.300683	
9.81351	  9.216309	
9.84677	  9.201050	
9.88004	  9.201050	
9.91331	  9.233243	
9.94657	  9.270649	
9.97984	  9.286004	
10.0131	  9.216309	
10.0464	  9.218758	
10.0796	  9.332071	
10.1129	  9.237779	
10.1462	  9.210194	
10.1794	  9.262085	
10.2127	  9.283265	
